<?xml version="1.0" encoding="UTF-8"?>
<svg xmlns="http://www.w3.org/2000/svg" width="1314" height="140" viewBox="0 0 1314 140" role="img" aria-label="Parcours patient ED">
<rect x="0" y="0" width="1314" height="140" fill="#f8fafc" stroke="#e2e8f0"/><text x="24" y="28" font-family="system-ui, Segoe UI, sans-serif" font-size="14" font-weight="700" fill="#0f172a">Parcours patient ED</text><text x="1290" y="28" font-family="system-ui, Segoe UI, sans-serif" font-size="10" fill="#64748b" text-anchor="end">D-20</text><rect x="24" y="56" width="150" height="44" rx="8" fill="#ffffff" stroke="#334155" stroke-width="1.5"/><text x="99" y="74" font-family="system-ui, Segoe UI, sans-serif" font-size="11" fill="#0f172a" text-anchor="middle">Accueil</text><line x1="174" y1="78" x2="210" y2="78" stroke="#64748b" stroke-width="1.5"/><polygon points="210,78 202,74 202,82" fill="#64748b"/><rect x="210" y="56" width="150" height="44" rx="8" fill="#ffffff" stroke="#334155" stroke-width="1.5"/><text x="285" y="74" font-family="system-ui, Segoe UI, sans-serif" font-size="11" fill="#0f172a" text-anchor="middle">Triage</text><line x1="360" y1="78" x2="396" y2="78" stroke="#64748b" stroke-width="1.5"/><polygon points="396,78 388,74 388,82" fill="#64748b"/><rect x="396" y="56" width="150" height="44" rx="8" fill="#ffffff" stroke="#334155" stroke-width="1.5"/><text x="471" y="74" font-family="system-ui, Segoe UI, sans-serif" font-size="11" fill="#0f172a" text-anchor="middle">Documentation</text><line x1="546" y1="78" x2="582" y2="78" stroke="#64748b" stroke-width="1.5"/><polygon points="582,78 574,74 574,82" fill="#64748b"/><rect x="582" y="56" width="150" height="44" rx="8" fill="#ffffff" stroke="#334155" stroke-width="1.5"/><text x="657" y="74" font-family="system-ui, Segoe UI, sans-serif" font-size="11" fill="#0f172a" text-anchor="middle">Ordres</text><line x1="732" y1="78" x2="768" y2="78" stroke="#64748b" stroke-width="1.5"/><polygon points="768,78 760,74 760,82" fill="#64748b"/><rect x="768" y="56" width="150" height="44" rx="8" fill="#ffffff" stroke="#334155" stroke-width="1.5"/><text x="843" y="74" font-family="system-ui, Segoe UI, sans-serif" font-size="11" fill="#0f172a" text-anchor="middle">Soins</text><line x1="918" y1="78" x2="954" y2="78" stroke="#64748b" stroke-width="1.5"/><polygon points="954,78 946,74 946,82" fill="#64748b"/><rect x="954" y="56" width="150" height="44" rx="8" fill="#ffffff" stroke="#334155" stroke-width="1.5"/><text x="1029" y="74" font-family="system-ui, Segoe UI, sans-serif" font-size="11" fill="#0f172a" text-anchor="middle">Orientation</text><line x1="1104" y1="78" x2="1140" y2="78" stroke="#64748b" stroke-width="1.5"/><polygon points="1140,78 1132,74 1132,82" fill="#64748b"/><rect x="1140" y="56" width="150" height="44" rx="8" fill="#ffffff" stroke="#334155" stroke-width="1.5"/><text x="1215" y="74" font-family="system-ui, Segoe UI, sans-serif" font-size="11" fill="#0f172a" text-anchor="middle">Sortie</text><text x="24" y="132" font-family="system-ui, Segoe UI, sans-serif" font-size="9" fill="#94a3b8">Medora-S — diagramme opérationnel (sans PHI)</text>
</svg>
